<?xml version="1.0" encoding="UTF-8" standalone="no"?>
<svg
   xmlns:dc="http://purl.org/dc/elements/1.1/"
   xmlns:cc="http://creativecommons.org/ns#"
   xmlns:rdf="http://www.w3.org/1999/02/22-rdf-syntax-ns#"
   xmlns:svg="http://www.w3.org/2000/svg"
   xmlns="http://www.w3.org/2000/svg"
   xmlns:sodipodi="http://sodipodi.sourceforge.net/DTD/sodipodi-0.dtd"
   xmlns:inkscape="http://www.inkscape.org/namespaces/inkscape"
   width="15mm"
   height="15mm"
   viewBox="0 0 15 15"
   version="1.1"
   id="svg1601"
   inkscape:version="1.0.1 (0767f8302a, 2020-10-17)"
   sodipodi:docname="github.svg">
  <defs
     id="defs1595" />
  <sodipodi:namedview
     id="base"
     pagecolor="#ffffff"
     bordercolor="#666666"
     borderopacity="1.0"
     inkscape:pageopacity="0.0"
     inkscape:pageshadow="2"
     inkscape:zoom="5.6"
     inkscape:cx="-13.523492"
     inkscape:cy="26.125561"
     inkscape:document-units="mm"
     inkscape:current-layer="layer1"
     inkscape:document-rotation="0"
     showgrid="false"
     inkscape:pagecheckerboard="true"
     fit-margin-top="0"
     fit-margin-left="0"
     fit-margin-right="0"
     fit-margin-bottom="0"
     inkscape:window-width="1920"
     inkscape:window-height="1016"
     inkscape:window-x="0"
     inkscape:window-y="27"
     inkscape:window-maximized="1" />
  <metadata
     id="metadata1598">
    <rdf:RDF>
      <cc:Work
         rdf:about="">
        <dc:format>image/svg+xml</dc:format>
        <dc:type
           rdf:resource="http://purl.org/dc/dcmitype/StillImage" />
        <dc:title></dc:title>
      </cc:Work>
    </rdf:RDF>
  </metadata>
  <g
     inkscape:label="Layer 1"
     inkscape:groupmode="layer"
     id="layer1"
     transform="translate(-91.608583,-124.11453)">
    <path
       style="fill:#ffffff;stroke-width:0.010666"
       d="m 96.905358,138.37286 c -0.368365,-0.13295 -0.597494,-0.22953 -0.882675,-0.37205 -0.958468,-0.479 -1.798533,-1.18084 -2.444443,-2.04223 -1.093201,-1.45791 -1.560373,-3.26041 -1.317221,-5.08234 0.16429,-1.23108 0.677839,-2.42203 1.464869,-3.39713 1.493755,-1.85072 3.804546,-2.8038 6.165967,-2.54315 2.174285,0.24 4.076735,1.46838 5.210695,3.36443 0.10501,0.17548 0.32377,0.60596 0.4023,0.79142 0.54923,1.29715 0.69527,2.70563 0.42276,4.07761 -0.4545,2.28842 -2.05529,4.2076 -4.2332,5.0752 -0.28839,0.11494 -0.37185,0.14049 -0.458,0.14049 -0.21064,0 -0.38896,-0.14792 -0.48218,-0.39998 -0.0187,-0.0504 -0.0201,-0.1232 -0.0261,-1.3226 -0.005,-0.90779 -0.0103,-1.29355 -0.0192,-1.35457 -0.02,-0.13259 -0.0525,-0.24873 -0.0934,-0.33424 -0.0206,-0.0431 -0.0359,-0.0796 -0.0339,-0.0811 10e-4,-0.001 0.049,-0.0116 0.10488,-0.0209 0.16143,-0.0288 0.5131,-0.11817 0.69864,-0.17775 0.92429,-0.29679 1.60323,-0.77292 2.04464,-1.43386 0.22587,-0.33821 0.39943,-0.79822 0.46074,-1.22125 0.0819,-0.56444 0.0292,-1.22595 -0.13941,-1.75396 -0.14023,-0.439 -0.39104,-0.87852 -0.66103,-1.1585 l -0.047,-0.0486 0.0421,-0.0901 c 0.0525,-0.11236 0.0892,-0.23826 0.12024,-0.41308 0.0329,-0.1846 0.0357,-0.60471 0.005,-0.78621 -0.0424,-0.25255 -0.13592,-0.50214 -0.25685,-0.68569 l -0.0507,-0.077 -0.0604,10e-6 c -0.17778,1e-5 -0.47514,0.0451 -0.67724,0.10282 -0.44797,0.12771 -0.91394,0.40036 -1.23292,0.72138 l -0.0899,0.0906 -0.086,-0.0292 c -0.2795,-0.0943 -0.71662,-0.17147 -1.152693,-0.20337 -0.205068,-0.015 -0.757384,-0.015 -0.943954,3e-5 -0.456618,0.0368 -0.856964,0.11018 -1.143901,0.20989 l -0.103979,0.0361 -0.09882,-0.0988 c -0.40628,-0.40627 -0.969381,-0.70078 -1.511776,-0.79067 -0.126814,-0.021 -0.302856,-0.0387 -0.384517,-0.0387 h -0.06231 l -0.04296,0.0599 c -0.05805,0.0811 -0.141133,0.24557 -0.180222,0.35689 -0.133225,0.37936 -0.144216,0.88707 -0.02812,1.30291 0.02438,0.0876 0.109913,0.28184 0.145132,0.32977 0.01161,0.015 9.42e-4,0.0308 -0.06721,0.10669 -0.587122,0.65169 -0.876213,1.48386 -0.847922,2.4409 0.01161,0.4066 0.07805,0.74848 0.210087,1.08716 0.394812,1.01279 1.316938,1.73495 2.650027,2.07532 0.09972,0.0254 0.246119,0.059 0.325316,0.0744 0.07921,0.0155 0.14979,0.0301 0.156872,0.0323 0.009,0.003 0.0026,0.0253 -0.01858,0.0735 -0.07753,0.17105 -0.114945,0.40044 -0.130503,0.79992 l -0.0026,0.0631 -0.07457,0.0253 c -0.31524,0.10643 -0.778683,0.10978 -1.129297,0.009 -0.397521,-0.11521 -0.666422,-0.31342 -0.896609,-0.66077 -0.245035,-0.36976 -0.568158,-0.60195 -0.934407,-0.67143 -0.152551,-0.0289 -0.305952,-0.0183 -0.39645,0.0275 -0.123073,0.0623 -0.06309,0.18233 0.178287,0.35609 0.270552,0.19483 0.512723,0.53354 0.693217,0.96955 0.06786,0.16378 0.175358,0.32274 0.322787,0.47706 0.314608,0.3293 0.741452,0.5338 1.245197,0.59659 0.126684,0.0159 0.462011,0.0156 0.602628,-3e-4 0.111075,-0.0129 0.33961,-0.0493 0.376545,-0.0605 0.01832,-0.005 0.01909,0.0173 0.01587,0.51504 l -0.0039,0.52087 -0.02735,0.0707 c -0.06205,0.15996 -0.167618,0.2829 -0.294264,0.34287 -0.06321,0.0299 -0.0854,0.0347 -0.168792,0.0369 -0.05276,9.4e-4 -0.11043,-0.003 -0.127975,-0.009 z"
       id="path867" />
  </g>
</svg>
