<?xml version="1.0" encoding="UTF-8" standalone="no"?>
<svg
   xmlns:dc="http://purl.org/dc/elements/1.1/"
   xmlns:cc="http://creativecommons.org/ns#"
   xmlns:rdf="http://www.w3.org/1999/02/22-rdf-syntax-ns#"
   xmlns:svg="http://www.w3.org/2000/svg"
   xmlns="http://www.w3.org/2000/svg"
   xmlns:sodipodi="http://sodipodi.sourceforge.net/DTD/sodipodi-0.dtd"
   xmlns:inkscape="http://www.inkscape.org/namespaces/inkscape"
   width="15mm"
   height="15mm"
   viewBox="0 0 15 15"
   version="1.1"
   id="svg1601"
   inkscape:version="1.0.1 (0767f8302a, 2020-10-17)"
   sodipodi:docname="gitlab.svg">
  <defs
     id="defs1595" />
  <sodipodi:namedview
     id="base"
     pagecolor="#ffffff"
     bordercolor="#666666"
     borderopacity="1.0"
     inkscape:pageopacity="0.0"
     inkscape:pageshadow="2"
     inkscape:zoom="7.9195959"
     inkscape:cx="48.194055"
     inkscape:cy="20.24041"
     inkscape:document-units="mm"
     inkscape:current-layer="layer1"
     inkscape:document-rotation="0"
     showgrid="false"
     inkscape:pagecheckerboard="true"
     fit-margin-top="0"
     fit-margin-left="0"
     fit-margin-right="0"
     fit-margin-bottom="0"
     inkscape:window-width="1854"
     inkscape:window-height="1016"
     inkscape:window-x="66"
     inkscape:window-y="27"
     inkscape:window-maximized="1" />
  <metadata
     id="metadata1598">
    <rdf:RDF>
      <cc:Work
         rdf:about="">
        <dc:format>image/svg+xml</dc:format>
        <dc:type
           rdf:resource="http://purl.org/dc/dcmitype/StillImage" />
        <dc:title></dc:title>
      </cc:Work>
    </rdf:RDF>
  </metadata>
  <g
     inkscape:label="Layer 1"
     inkscape:groupmode="layer"
     id="layer1"
     transform="translate(-91.608583,-124.11453)">
    <path
       id="path2925"
       style="fill:#ffffff;stroke:none;stroke-width:0.129819"
       d="m 99.133345,124.96803 c -0.30339,0.006 -0.61446,0.0329 -0.93328,0.0827 -1.00752,0.15736 -2.01311,0.49905 -2.85615,1.08211 -5.54972,3.83832 -2.12785,13.10757 4.673615,12.04526 1.00752,-0.15735 2.01261,-0.49852 2.85565,-1.08159 5.28963,-3.6584 2.42911,-12.25076 -3.739835,-12.12846 z m 2.700625,2.96106 c 0.1336,0 0.17179,0.12115 0.20619,0.22841 0.0869,0.2708 0.18106,0.54046 0.26097,0.81339 0.26394,0.90141 0.57371,1.79657 0.87074,2.68769 0.0745,0.22344 0.14358,0.44831 0.21808,0.67179 0.0411,0.12461 0.0968,0.25788 0.0512,0.38913 -0.0471,0.13556 -0.17162,0.20838 -0.28112,0.28939 -0.19926,0.14737 -0.40136,0.2908 -0.601,0.43769 -0.80972,0.59584 -1.63191,1.17468 -2.44017,1.7725 -0.245875,0.18187 -0.495495,0.35879 -0.742595,0.53899 -0.0697,0.0508 -0.19039,0.178 -0.28319,0.1633 -0.0826,-0.0131 -0.16364,-0.1007 -0.22944,-0.1478 -0.16573,-0.11864 -0.33034,-0.23983 -0.49558,-0.35915 -0.60217,-0.43477 -1.20637,-0.86729 -1.80351,-1.30896 -0.43922,-0.32488 -0.88194,-0.6461 -1.32601,-0.96428 -0.15426,-0.11054 -0.42506,-0.23838 -0.47026,-0.43925 -0.0328,-0.1459 0.0303,-0.28887 0.0754,-0.42427 0.0745,-0.22348 0.14357,-0.44886 0.21807,-0.67231 0.28999,-0.86996 0.55857,-1.74683 0.84853,-2.61689 0.0898,-0.26933 0.18443,-0.5406 0.26303,-0.81339 0.0324,-0.11263 0.0711,-0.24846 0.21446,-0.24546 0.0948,0.002 0.14165,0.0764 0.17105,0.15709 0.0678,0.1859 0.13058,0.3764 0.18759,0.56586 0.16954,0.56278 0.35724,1.12239 0.54311,1.68 0.0552,0.1657 0.0979,0.52319 0.2248,0.64337 0.0503,0.0476 0.15425,0.0284 0.21756,0.0284 h 0.60099 2.386945 c 0.041,-0.27789 0.17051,-0.56439 0.25942,-0.83095 0.17035,-0.51106 0.34087,-1.02394 0.50075,-1.53841 0.0533,-0.17168 0.12994,-0.7059 0.35398,-0.7059 z" />
  </g>
</svg>
