<?xml version="1.0" encoding="UTF-8" standalone="no"?>
<svg
   xmlns:dc="http://purl.org/dc/elements/1.1/"
   xmlns:cc="http://creativecommons.org/ns#"
   xmlns:rdf="http://www.w3.org/1999/02/22-rdf-syntax-ns#"
   xmlns:svg="http://www.w3.org/2000/svg"
   xmlns="http://www.w3.org/2000/svg"
   xmlns:sodipodi="http://sodipodi.sourceforge.net/DTD/sodipodi-0.dtd"
   xmlns:inkscape="http://www.inkscape.org/namespaces/inkscape"
   width="15mm"
   height="15mm"
   viewBox="0 0 15 15"
   version="1.1"
   id="svg1601"
   inkscape:version="1.0.1 (0767f8302a, 2020-10-17)"
   sodipodi:docname="ld.svg">
  <defs
     id="defs1595" />
  <sodipodi:namedview
     id="base"
     pagecolor="#ffffff"
     bordercolor="#666666"
     borderopacity="1.0"
     inkscape:pageopacity="0.0"
     inkscape:pageshadow="2"
     inkscape:zoom="7.9195959"
     inkscape:cx="36.187259"
     inkscape:cy="18.44435"
     inkscape:document-units="mm"
     inkscape:current-layer="layer1"
     inkscape:document-rotation="0"
     showgrid="false"
     inkscape:pagecheckerboard="true"
     fit-margin-top="0"
     fit-margin-left="0"
     fit-margin-right="0"
     fit-margin-bottom="0"
     inkscape:window-width="1854"
     inkscape:window-height="1016"
     inkscape:window-x="66"
     inkscape:window-y="27"
     inkscape:window-maximized="1" />
  <metadata
     id="metadata1598">
    <rdf:RDF>
      <cc:Work
         rdf:about="">
        <dc:format>image/svg+xml</dc:format>
        <dc:type
           rdf:resource="http://purl.org/dc/dcmitype/StillImage" />
        <dc:title />
      </cc:Work>
    </rdf:RDF>
  </metadata>
  <g
     inkscape:label="Layer 1"
     inkscape:groupmode="layer"
     id="layer1"
     transform="translate(-91.608583,-124.11453)">
    <path
       id="path2925"
       style="fill:#ffffff;stroke:none;stroke-width:0.490654"
       d="M 28.439453 3.2265625 C 27.292782 3.2492397 26.117098 3.350842 24.912109 3.5390625 C 21.104156 4.133809 17.30348 5.4252149 14.117188 7.6289062 C -6.8581322 22.135942 6.074918 57.169327 31.78125 53.154297 C 35.5892 52.559588 39.387926 51.270135 42.574219 49.066406 C 62.566521 35.239383 51.755158 2.7643263 28.439453 3.2265625 z M 30.238281 12.949219 C 30.291951 12.960557 30.339031 13.020753 30.373047 13.150391 C 30.625255 14.072217 31.277344 14.689453 31.277344 14.689453 C 31.277344 14.689453 31.977324 12.826307 34.275391 14.34375 C 32.212487 14.592745 32.451172 15.138672 32.451172 15.138672 C 32.451172 15.138672 33.918921 14.769467 34.822266 15.09375 C 34.70699 15.127388 34.590641 15.166276 34.474609 15.208984 C 35.181986 15.254906 35.879353 15.409639 36.507812 15.673828 C 38.073444 16.332411 38.538492 20.097612 40.054688 19.332031 C 41.659815 18.521549 39.167969 14.009766 39.167969 14.009766 C 39.167969 14.009766 43.098959 16.556853 43.324219 18.611328 C 43.514896 20.349382 42.778729 22.657255 41.439453 23.908203 C 42.014206 24.79677 42.536522 25.784628 42.763672 26.720703 C 43.374444 29.23647 43.208833 33.762479 43.076172 33.785156 C 43.076172 33.785156 43.018109 34.739008 42.359375 33.783203 C 41.072295 31.844835 39.935532 30.314572 38.857422 28.943359 C 38.694675 30.736254 38.207578 32.491038 37.365234 34.009766 C 36.018664 36.437583 33.169358 39.089425 30.775391 40.207031 C 30.905028 40.670061 31.096656 40.930797 31.136719 41.398438 C 31.254451 42.778456 30.675998 43.421697 30.822266 45.544922 C 30.425529 44.237092 30.226573 44.035314 29.947266 43.267578 C 29.772538 42.787465 29.447266 41.810547 29.447266 41.810547 C 29.447266 41.810547 29.428495 42.899044 29.451172 43.441406 C 29.496526 44.570502 29.668041 45.942453 29.716797 46.8125 C 28.876683 45.339845 27.804688 42.724609 27.804688 42.724609 C 27.804688 42.724609 28.052765 43.643537 25.947266 43.71875 C 26.320872 43.054536 26.612215 42.05658 26.638672 41.136719 C 26.646609 40.847207 26.52965 40.50334 26.400391 40.171875 C 24.60485 39.334029 22.953419 37.72612 21.644531 36.251953 C 20.052103 34.458416 18.711278 32.163611 18.511719 29.773438 C 18.486396 29.476253 18.473651 29.178245 18.470703 28.878906 C 17.484284 30.141457 16.444449 31.552954 15.273438 33.316406 C 14.643315 34.230523 14.585938 33.318359 14.585938 33.318359 C 14.458945 33.297194 14.300564 28.966934 14.884766 26.560547 C 15.086895 25.727955 15.533639 24.85291 16.037109 24.050781 C 14.556215 23.394542 13.381041 21.57382 13.339844 19.996094 C 13.276348 17.572132 15.834486 15.341241 17.552734 14.066406 C 16.721314 15.23035 15.26385 18.033281 17.275391 18.443359 C 19.056871 18.806534 20.436589 15.356569 22.484375 14.841797 C 23.961263 14.471025 25.687713 14.318109 27.216797 14.660156 C 27.391789 13.865322 28.686385 14.304936 29.318359 13.951172 C 29.631229 13.776066 30.006974 12.900085 30.238281 12.949219 z "
       transform="matrix(0.26458333,0,0,0.26458333,91.608583,124.11453)" />
  </g>
</svg>
