<?xml version="1.0" encoding="UTF-8" standalone="no"?>
<svg
   xmlns:dc="http://purl.org/dc/elements/1.1/"
   xmlns:cc="http://creativecommons.org/ns#"
   xmlns:rdf="http://www.w3.org/1999/02/22-rdf-syntax-ns#"
   xmlns:svg="http://www.w3.org/2000/svg"
   xmlns="http://www.w3.org/2000/svg"
   xmlns:sodipodi="http://sodipodi.sourceforge.net/DTD/sodipodi-0.dtd"
   xmlns:inkscape="http://www.inkscape.org/namespaces/inkscape"
   version="1.1"
   id="Layer_1"
   x="0px"
   y="0px"
   viewBox="0 0 150 150"
   xml:space="preserve"
   sodipodi:docname="programmer.svg"
   inkscape:version="1.0.1 (0767f8302a, 2020-10-17)"
   width="150"
   height="150"><metadata
   id="metadata3754"><rdf:RDF><cc:Work
       rdf:about=""><dc:format>image/svg+xml</dc:format><dc:type
         rdf:resource="http://purl.org/dc/dcmitype/StillImage" /><dc:title></dc:title></cc:Work></rdf:RDF></metadata><defs
   id="defs3752"><clipPath
     clipPathUnits="userSpaceOnUse"
     id="clipPath4362"><circle
       style="font-variation-settings:normal;opacity:1;vector-effect:none;fill:#87d1ee;fill-opacity:1;stroke:#ffffff;stroke-width:1.8627;stroke-linecap:butt;stroke-linejoin:miter;stroke-miterlimit:4;stroke-dasharray:none;stroke-dashoffset:0;stroke-opacity:1;paint-order:stroke fill markers;stop-color:#000000;stop-opacity:1"
       id="circle4364"
       cx="254.47353"
       cy="257.10629"
       r="229.95375" /></clipPath></defs><sodipodi:namedview
   pagecolor="#ffffff"
   bordercolor="#666666"
   borderopacity="1"
   objecttolerance="10"
   gridtolerance="10"
   guidetolerance="10"
   inkscape:pageopacity="0"
   inkscape:pageshadow="2"
   inkscape:window-width="1920"
   inkscape:window-height="1016"
   id="namedview3750"
   showgrid="false"
   inkscape:zoom="2.4306796"
   inkscape:cx="68.8983"
   inkscape:cy="83.557609"
   inkscape:window-x="0"
   inkscape:window-y="27"
   inkscape:window-maximized="1"
   inkscape:current-layer="Layer_1"
   inkscape:document-rotation="0" />
















<g
   id="g4375"
   style="stroke:none"
   transform="matrix(0.29904791,0,0,0.29904791,-0.65985071,-1.6610267)"><circle
     style="font-variation-settings:normal;opacity:1;vector-effect:none;fill:#87d1ee;fill-opacity:1;stroke:none;stroke-width:1.8627;stroke-linecap:butt;stroke-linejoin:miter;stroke-miterlimit:4;stroke-dasharray:none;stroke-dashoffset:0;stroke-opacity:1;paint-order:stroke fill markers;stop-color:#000000;stop-opacity:1"
     id="path4349"
     cx="254.47353"
     cy="257.10629"
     r="229.95375" /><g
     id="g4358"
     clip-path="url(#clipPath4362)"
     style="stroke:none"><path
       style="font-variation-settings:normal;opacity:1;vector-effect:none;fill:#e8bfa9;fill-opacity:1;stroke:none;stroke-width:1;stroke-linecap:butt;stroke-linejoin:miter;stroke-miterlimit:4;stroke-dasharray:none;stroke-dashoffset:0;stroke-opacity:1;stop-color:#000000;stop-opacity:1"
       d="m 213.864,319.126 v 20.353 c 0,6.799 -4.088,12.932 -10.365,15.549 l -67.241,28.016 c -14.206,5.92 -23.459,22.008 -23.459,37.397 v 81.092 h 286.352 v -81.092 c 0,-15.389 -9.254,-31.479 -23.459,-37.397 l -67.241,-28.016 c -6.277,-2.615 -10.365,-8.749 -10.365,-15.549 v -20.353 z"
       id="path3671" /><path
       style="fill:#9b1d48;fill-opacity:1;stroke:none"
       d="m 375.692,383.044 -67.241,-28.016 c -5.658,-2.357 -9.526,-7.576 -10.237,-13.561 v 12.816 c 0,23.239 -19.014,42.255 -42.255,42.255 v 0 c -23.239,0 -42.254,-19.014 -42.254,-42.255 v -12.557 c -0.79,5.877 -4.632,10.978 -10.208,13.301 l -67.241,28.016 c -14.206,5.92 -23.459,22.008 -23.459,37.397 v 81.092 H 399.149 V 420.44 c 0.002,-15.387 -9.253,-31.477 -23.457,-37.396 z"
       id="path3673" /><path
       style="fill:#e8bfa9;fill-opacity:1;stroke:none"
       d="m 350.006,199.171 v -30.443 c 0,-51.831 -42.017,-93.848 -93.848,-93.848 -51.831,0 -93.848,42.017 -93.848,93.848 h -0.368 v 30.443 c -12.925,0 -23.403,10.478 -23.403,23.403 0,12.925 10.478,23.403 23.403,23.403 v 17.472 c 1.126,14.735 8.311,27.853 19.192,35.038 l 56.575,32.343 c 11.36,7.503 25.173,7.503 36.533,0 l 56.405,-32.343 c 10.879,-7.185 18.233,-20.303 19.36,-35.038 v -17.472 c 12.925,0 23.403,-10.478 23.403,-23.403 -0.001,-12.926 -10.479,-23.403 -23.404,-23.403 z"
       id="path3675" /><path
       style="fill:#311a12;stroke:none"
       d="m 345.538,87.478592 c -17.704,-22.56 -36.427,-27.376 -50.329,-20.61 -11.022,-9.42 -27.536,-18.827 -55.116,-18.827 -62.297,0 -96.385,47.794 -96.385,90.273998 0,45.334 18.236,74.222 18.236,74.222 0,0 6.794,-47.684 53.474,-47.684 31.206,0 50.01,-12.389 63.133,-27.592 5.577,14.531 32.583,20.632 43.191,30.01 20.997,18.557 28.249,33.081 28.249,33.081 0,0 33.089,-65.044 -4.453,-112.873998 z"
       id="path3677" /><path
       d="m 294.077,235.482 c -6.44,0 -11.679,-5.239 -11.679,-11.678 0,-6.44 5.239,-11.679 11.679,-11.679 6.44,0 11.679,5.239 11.679,11.679 0,6.439 -5.239,11.678 -11.679,11.678 z"
       id="path3695"
       style="fill:#311a12;stroke:none" /><path
       d="m 217.872,235.482 c -6.44,0 -11.679,-5.239 -11.679,-11.678 0,-6.44 5.239,-11.679 11.679,-11.679 6.44,0 11.679,5.239 11.679,11.679 -0.002,6.439 -5.24,11.678 -11.679,11.678 z"
       id="path3697"
       style="fill:#311a12;stroke:none" /><path
       d="m 256.018,292.456 c -11.39,0 -20.658,-9.267 -20.658,-20.658 0,-5.77 4.678,-10.448 10.448,-10.448 h 20.419 c 5.77,0 10.448,4.678 10.448,10.448 0,11.392 -9.266,20.658 -20.657,20.658 z"
       id="path3699"
       style="fill:#9a605c;stroke:none" /></g></g>









<g
   id="g3719">
</g>
<g
   id="g3721">
</g>
<g
   id="g3723">
</g>
<g
   id="g3725">
</g>
<g
   id="g3727">
</g>
<g
   id="g3729">
</g>
<g
   id="g3731">
</g>
<g
   id="g3733">
</g>
<g
   id="g3735">
</g>
<g
   id="g3737">
</g>
<g
   id="g3739">
</g>
<g
   id="g3741">
</g>
<g
   id="g3743">
</g>
<g
   id="g3745">
</g>
<g
   id="g3747">
</g>
</svg>
