<?xml version="1.0" encoding="UTF-8" standalone="no"?>
<svg
   xmlns:dc="http://purl.org/dc/elements/1.1/"
   xmlns:cc="http://creativecommons.org/ns#"
   xmlns:rdf="http://www.w3.org/1999/02/22-rdf-syntax-ns#"
   xmlns:svg="http://www.w3.org/2000/svg"
   xmlns="http://www.w3.org/2000/svg"
   xmlns:sodipodi="http://sodipodi.sourceforge.net/DTD/sodipodi-0.dtd"
   xmlns:inkscape="http://www.inkscape.org/namespaces/inkscape"
   width="15mm"
   height="15mm"
   viewBox="0 0 15 15"
   version="1.1"
   id="svg1601"
   inkscape:version="1.0.1 (0767f8302a, 2020-10-17)"
   sodipodi:docname="telegram.svg">
  <defs
     id="defs1595" />
  <sodipodi:namedview
     id="base"
     pagecolor="#ffffff"
     bordercolor="#666666"
     borderopacity="1.0"
     inkscape:pageopacity="0.0"
     inkscape:pageshadow="2"
     inkscape:zoom="7.9195959"
     inkscape:cx="38.310895"
     inkscape:cy="1.3122378"
     inkscape:document-units="mm"
     inkscape:current-layer="layer1"
     inkscape:document-rotation="0"
     showgrid="false"
     inkscape:pagecheckerboard="true"
     fit-margin-top="0"
     fit-margin-left="0"
     fit-margin-right="0"
     fit-margin-bottom="0"
     inkscape:window-width="1854"
     inkscape:window-height="1016"
     inkscape:window-x="66"
     inkscape:window-y="27"
     inkscape:window-maximized="1" />
  <metadata
     id="metadata1598">
    <rdf:RDF>
      <cc:Work
         rdf:about="">
        <dc:format>image/svg+xml</dc:format>
        <dc:type
           rdf:resource="http://purl.org/dc/dcmitype/StillImage" />
        <dc:title></dc:title>
      </cc:Work>
    </rdf:RDF>
  </metadata>
  <g
     inkscape:label="Layer 1"
     inkscape:groupmode="layer"
     id="layer1"
     transform="translate(-91.608583,-124.11453)">
    <path
       style="fill:#ffffff;stroke:none;stroke-width:0.129819"
       d="m 98.199849,125.05075 c -1.00752,0.15736 -2.012984,0.49897 -2.856023,1.08203 -5.54972,3.83832 -2.12798,13.10784 4.673484,12.04553 1.0075,-0.15735 2.01297,-0.49896 2.85601,-1.08203 5.54977,-3.83832 2.12797,-13.10782 -4.673471,-12.04553 m 3.894561,3.70776 c -0.015,1.78562 -0.92464,3.65725 -1.51785,5.32258 -0.14641,0.41099 -0.39634,1.50433 -0.960321,1.51295 -0.87552,0.0134 -1.35333,-2.11777 -1.94929,-2.63024 -0.53942,-0.46384 -2.333023,-0.74478 -2.355393,-1.6088 -0.0159,-0.61502 1.016819,-0.84 1.46028,-0.994 1.682093,-0.58406 3.522644,-1.5874 5.322574,-1.60249 z"
       id="path475" />
  </g>
</svg>
