<?xml version="1.0" encoding="UTF-8" standalone="no"?>
<svg
   xmlns:dc="http://purl.org/dc/elements/1.1/"
   xmlns:cc="http://creativecommons.org/ns#"
   xmlns:rdf="http://www.w3.org/1999/02/22-rdf-syntax-ns#"
   xmlns:svg="http://www.w3.org/2000/svg"
   xmlns="http://www.w3.org/2000/svg"
   xmlns:sodipodi="http://sodipodi.sourceforge.net/DTD/sodipodi-0.dtd"
   xmlns:inkscape="http://www.inkscape.org/namespaces/inkscape"
   width="15mm"
   height="15mm"
   viewBox="0 0 15 15"
   version="1.1"
   id="svg1601"
   inkscape:version="1.0.1 (0767f8302a, 2020-10-17)"
   sodipodi:docname="whatsapp.svg">
  <defs
     id="defs1595" />
  <sodipodi:namedview
     id="base"
     pagecolor="#ffffff"
     bordercolor="#666666"
     borderopacity="1.0"
     inkscape:pageopacity="0.0"
     inkscape:pageshadow="2"
     inkscape:zoom="7.9195959"
     inkscape:cx="19.678557"
     inkscape:cy="34.822926"
     inkscape:document-units="mm"
     inkscape:current-layer="layer1"
     inkscape:document-rotation="0"
     showgrid="false"
     inkscape:pagecheckerboard="true"
     fit-margin-top="0"
     fit-margin-left="0"
     fit-margin-right="0"
     fit-margin-bottom="0"
     inkscape:window-width="1920"
     inkscape:window-height="1016"
     inkscape:window-x="0"
     inkscape:window-y="27"
     inkscape:window-maximized="1" />
  <metadata
     id="metadata1598">
    <rdf:RDF>
      <cc:Work
         rdf:about="">
        <dc:format>image/svg+xml</dc:format>
        <dc:type
           rdf:resource="http://purl.org/dc/dcmitype/StillImage" />
        <dc:title></dc:title>
      </cc:Work>
    </rdf:RDF>
  </metadata>
  <g
     inkscape:label="Layer 1"
     inkscape:groupmode="layer"
     id="layer1"
     transform="translate(-91.608583,-124.11453)">
    <path
       id="path6265"
       style="font-variation-settings:normal;opacity:1;vector-effect:none;fill:#ffffff;fill-opacity:1;stroke:none;stroke-width:0.129819;stroke-linecap:butt;stroke-linejoin:miter;stroke-miterlimit:4;stroke-dasharray:none;stroke-dashoffset:0;stroke-opacity:1;paint-order:stroke fill markers;stop-color:#000000;stop-opacity:1"
       d="m 99.187071,124.98904 a 6.6050344,6.6050344 0 0 0 -6.568074,6.60477 6.6050344,6.6050344 0 0 0 6.605281,6.60528 6.6050344,6.6050344 0 0 0 6.604762,-6.60528 6.6050344,6.6050344 0 0 0 -6.604762,-6.60477 6.6050344,6.6050344 0 0 0 -0.03721,0 z m 0.208256,2.19625 c 0.596659,0.0141 1.194213,0.14933 1.753903,0.41031 1.25613,0.58569 2.15342,1.72705 2.44997,3.11609 0.0499,0.23657 0.0611,0.36802 0.0625,0.82992 0.002,0.63388 -0.0349,0.8887 -0.20153,1.3994 -0.49038,1.50253 -1.71227,2.59103 -3.29644,2.93832 -0.236332,0.0527 -0.350191,0.0599 -0.873336,0.0599 -0.524473,0 -0.636492,-0.008 -0.875399,-0.0599 -0.349958,-0.0767 -0.704327,-0.1957 -1.012341,-0.33951 l -0.243396,-0.11317 -1.19786,0.38395 c -0.659066,0.21116 -1.202478,0.38448 -1.207678,0.38448 -0.02312,0 0.01132,-0.10884 0.379305,-1.19321 l 0.389123,-1.1467 -0.147277,-0.29611 c -0.172534,-0.34679 -0.319298,-0.76863 -0.393258,-1.1312 -0.06953,-0.34081 -0.09442,-1.00016 -0.05168,-1.36839 0.134103,-1.15546 0.741607,-2.22764 1.673282,-2.95486 0.806651,-0.62964 1.797647,-0.94292 2.792078,-0.91932 z m -0.104903,0.76946 c -0.995257,0 -1.863708,0.36235 -2.567285,1.07074 -0.694813,0.69957 -1.049932,1.55282 -1.052132,2.52904 -0.0017,0.74007 0.17626,1.36448 0.559138,1.96112 l 0.125574,0.19534 -0.217557,0.64699 c -0.11981,0.35577 -0.217759,0.65452 -0.217558,0.66352 2.01e-4,0.009 0.294818,-0.0779 0.655257,-0.19378 0.360438,-0.11582 0.674258,-0.21084 0.696598,-0.21084 0.02234,0 0.13336,0.0532 0.247014,0.11885 0.360769,0.20812 0.87295,0.3818 1.302762,0.4408 0.263545,0.0363 0.895549,0.0146 1.150318,-0.0388 0.852207,-0.17847 1.567677,-0.60092 2.102197,-1.24282 0.82113,-0.9861 1.06148,-2.31609 0.63614,-3.52175 -0.18535,-0.52539 -0.44745,-0.93973 -0.85266,-1.34772 -0.70358,-0.70839 -1.57254,-1.07074 -2.567806,-1.07074 z m -1.352889,1.47123 c 0.187634,0.003 0.224042,0.0106 0.277502,0.0641 0.05925,0.0593 0.433768,1.02049 0.433565,1.11259 -1.48e-4,0.0633 -0.09572,0.2092 -0.260449,0.39688 -0.176425,0.20097 -0.176584,0.19888 0.05013,0.54415 0.29405,0.44781 0.686607,0.80213 1.150318,1.03715 0.167816,0.0857 0.249005,0.11323 0.294556,0.0997 0.03455,-0.01 0.147073,-0.11567 0.250113,-0.23513 0.28691,-0.3328 0.27564,-0.32367 0.37568,-0.30747 0.0487,0.008 0.30434,0.13054 0.56896,0.27285 0.37679,0.20268 0.48571,0.27246 0.49765,0.32246 0.0213,0.0852 -0.0475,0.40657 -0.11576,0.54054 -0.0301,0.059 -0.1,0.14532 -0.15555,0.19172 -0.15322,0.12748 -0.45517,0.26425 -0.64957,0.29455 -0.0956,0.0148 -0.19796,0.0262 -0.22737,0.0253 -0.17436,-0.005 -0.81332,-0.23592 -1.230933,-0.44596 -0.56698,-0.28522 -1.100615,-0.79959 -1.595252,-1.5379 -0.362597,-0.54122 -0.502508,-0.89913 -0.503328,-1.29087 -7.35e-4,-0.3504 0.105922,-0.62169 0.344682,-0.87695 0.171646,-0.18352 0.238871,-0.21174 0.49506,-0.20774 z" />
  </g>
</svg>
